<?xml version="1.0" standalone="no"?>
<!DOCTYPE svg PUBLIC "-//W3C//DTD SVG 1.1//EN" "http://www.w3.org/Graphics/SVG/1.1/DTD/svg11.dtd" >
<svg xmlns="http://www.w3.org/2000/svg">
<metadata></metadata>
<defs>
<font id="adventbold2" horiz-adv-x="970" >
<font-face units-per-em="2048" ascent="1462" descent="-586" />
<missing-glyph horiz-adv-x="493" />
<glyph unicode="&#xfb01;" horiz-adv-x="905" d="M127 0v1090q0 94 35 171t96 122t137.5 62.5t166 -3.5t173.5 -80l-141 -129q-35 30 -83.5 39t-91.5 -3.5t-73.5 -50.5t-30.5 -94v-98h199l-49 -176h-150v-850h-188zM594 0v1026h184v-1026h-184z" />
<glyph unicode="&#xfb02;" horiz-adv-x="905" d="M127 0v1090q0 147 77 240.5t222 113.5t352 -60v-1384h-188v1235q-50 40 -114.5 41.5t-112.5 -39.5t-48 -113v-98h199l-49 -176h-150v-850h-188z" />
<glyph unicode="&#xfb04;" horiz-adv-x="1380" d="M127 0v1018q0 66 6 125q16 122 93 199t206 93.5t303 -46.5q54 36 125.5 49.5t144.5 6.5t133 -20.5t115 -33.5v-1391h-190v1237q-41 20 -88 21.5t-86.5 -13.5t-65.5 -50.5t-26 -84.5v-84h196q-37 -134 -49 -176h-147v-850h-191v1090q0 65 17 131q-37 29 -91 35 t-101.5 -8.5t-81.5 -52.5t-34 -91v-78h199q-38 -134 -49 -176h-150v-850h-188z" />
<glyph horiz-adv-x="2048" />
<glyph horiz-adv-x="2048" />
<glyph unicode="&#xd;" horiz-adv-x="2048" />
<glyph unicode=" "  horiz-adv-x="493" />
<glyph unicode="&#x09;" horiz-adv-x="493" />
<glyph unicode="&#xa0;" horiz-adv-x="493" />
<glyph unicode="!" horiz-adv-x="528" d="M164 1335q0 119 98 119q105 0 105 -117l-35 -1091h-135zM174 90q0 38 26.5 65t63.5 27q38 0 65 -27t27 -65q0 -37 -27 -63.5t-65 -26.5q-37 0 -63.5 26.5t-26.5 63.5z" />
<glyph unicode="&#x22;" horiz-adv-x="671" d="M104 1427q0 37 26 59t58 22.5t58 -21t26 -60.5l-28 -378h-111zM399 1427q0 37 26.5 59t57.5 22.5t57.5 -21t26.5 -60.5l-28 -378h-111z" />
<glyph unicode="#" horiz-adv-x="1368" d="M121 358v177h213l57 237h-270v189h315l109 473h180l-111 -473h244l111 473h190l-110 -473h194v-189h-239l-56 -237h295v-177h-338l-84 -358h-188l80 358h-242l-82 -358h-180l84 358h-172zM514 535h242l57 237h-244z" />
<glyph unicode="$" horiz-adv-x="1138" d="M84 365l199 22q6 -76 57 -134.5t135 -78.5v547q-54 22 -90 38t-81.5 41.5t-75 53t-56.5 63.5t-40 82t-13 101q0 123 91.5 221.5t264.5 124.5v227h187v-223q113 -7 219 -57q0 -1 -9 -27.5t-25 -72.5t-26 -76q-84 32 -159 43v-414q68 -29 116.5 -54t105 -65.5t91.5 -84.5 t58.5 -108t23.5 -139q0 -80 -22.5 -147.5t-68.5 -123.5t-123.5 -92.5t-180.5 -47.5v-217h-187v219q-93 12 -168.5 50t-122.5 91t-72.5 114t-27.5 124zM319 1085q1 -53 41 -88.5t115 -68.5v325q-78 -19 -118.5 -62.5t-37.5 -105.5zM662 172q88 20 139 75.5t51 131.5 q0 91 -49.5 150t-140.5 106v-463z" />
<glyph unicode="%" horiz-adv-x="1445" d="M96 121l1114 1401l146 -117l-1125 -1405zM115 1194q0 123 86 209t209 86t209 -86t86 -209t-86 -209t-209 -86t-209 86t-86 209zM297 1194q0 -45 31.5 -80t81.5 -35q51 0 82.5 34.5t31.5 80.5q0 44 -31.5 79.5t-82.5 35.5q-50 0 -81.5 -35.5t-31.5 -79.5zM752 272 q0 123 86 209t209 86t208.5 -86t85.5 -209t-85.5 -209t-208.5 -86t-209 86t-86 209zM934 272q0 -45 30.5 -78.5t82.5 -33.5q51 0 81.5 33t30.5 79q0 44 -30.5 78.5t-81.5 34.5t-82 -34.5t-31 -78.5z" />
<glyph unicode="&#x26;" horiz-adv-x="1187" d="M100 418q6 69 29 129.5t58 105t71.5 80t80 61.5t73.5 41t61 27q-68 24 -114.5 96.5t-49.5 165.5q-2 74 25.5 137t76.5 104.5t114 67t136.5 24t145.5 -24.5l-107 -162q-65 26 -129.5 -12.5t-68.5 -112.5q-4 -51 16 -90.5t52 -59t64 -28t56 -4.5l35 4v262l186 18v-256 l150 33l41 -186l-191 -39v-455q0 -79 33.5 -137t102.5 -82l-33 -148q-67 7 -136.5 42t-109.5 100q-39 -60 -115.5 -101t-189.5 -41q-93 0 -167 37t-118.5 98.5t-65 140.5t-12.5 165zM283 420q-14 -107 39 -180.5t159 -73.5q77 0 134.5 45t83.5 109t26 135v303 q-62 -15 -111 -30t-110.5 -43t-103.5 -62t-75.5 -87t-41.5 -116z" />
<glyph unicode="'" horiz-adv-x="360" d="M96 1427q0 37 26 59t58 22.5t58 -21t26 -60.5l-28 -221h-111z" />
<glyph unicode="(" horiz-adv-x="536" d="M150 145v1139q0 82 15 142.5t48 105t71.5 75.5t98.5 66l86 -143q-66 -28 -100.5 -89.5t-34.5 -176.5v-1096q0 -48 4 -85t15.5 -64t20.5 -44t29.5 -33.5t31 -23.5t36.5 -22l-86 -136q-61 35 -99 65t-72 74.5t-49 104.5t-15 141z" />
<glyph unicode=")" horiz-adv-x="536" d="M66 -104q30 18 43 26.5t35 30.5t31.5 47t17.5 68t8 100v1096q0 116 -33.5 177t-99.5 89l86 143q60 -35 98.5 -66t71.5 -75.5t48 -105t15 -142.5v-1139q0 -81 -15 -141t-49 -104.5t-72 -74.5t-99 -65z" />
<glyph unicode="*" horiz-adv-x="778" d="M61 1149l64 172l205 -119l-43 232h196l-45 -232l203 121l74 -176l-240 -41l174 -164l-166 -115l-98 228l-98 -228l-164 117l170 164z" />
<glyph unicode="+" horiz-adv-x="835" d="M90 666v180h234v270h188v-270h233v-180h-233v-246h-188v246h-234z" />
<glyph unicode="," horiz-adv-x="432" d="M55 -113q44 24 79.5 51t49.5 42l13 14l-23 6q-31 18 -42 44t-11 46q2 40 30 66.5t70 25.5q43 -3 66.5 -38t23.5 -72q1 -68 -32 -125t-103 -119z" />
<glyph unicode="-" d="M158 666v180h655v-180h-655z" />
<glyph unicode="." horiz-adv-x="423" d="M121 90q0 38 27.5 65t64.5 27t63.5 -27t26.5 -65q0 -37 -26.5 -63.5t-63.5 -26.5t-64.5 26.5t-27.5 63.5z" />
<glyph unicode="/" horiz-adv-x="972" d="M53 -233l664 1906h201l-666 -1906h-199z" />
<glyph unicode="0" horiz-adv-x="1114" d="M127 379v659q0 211 116 319.5t318 108.5q203 0 314.5 -115t111.5 -315v-657q0 -87 -25 -157t-66.5 -115t-98 -75t-115.5 -42.5t-123 -12.5t-123 12.5t-116.5 42.5t-99.5 75t-67.5 115t-25.5 157zM313 406q0 -114 64.5 -178t179.5 -64q111 0 177.5 64.5t66.5 179.5v587 q0 136 -56.5 205.5t-187.5 69.5t-187.5 -68.5t-56.5 -204.5v-591z" />
<glyph unicode="1" horiz-adv-x="651" d="M35 1296q5 0 14.5 1.5t37 10.5t53.5 22.5t60.5 40.5t61.5 63h187v-1434h-189l2 1182q-26 -17 -70 -30t-75 -18l-31 -4z" />
<glyph unicode="2" horiz-adv-x="923" d="M74 0v172l487 725q73 114 70 197.5t-55 130.5t-130 47q-63 0 -112.5 -43.5t-61.5 -104.5l-168 84q37 106 131.5 176t223.5 70q90 0 165 -34t121 -94.5t65 -137.5t-2 -171t-81 -186l-436 -659h532v-172h-749z" />
<glyph unicode="3" horiz-adv-x="929" d="M61 170l123 125q35 -62 100 -99.5t138 -37.5q113 0 182.5 74.5t69.5 179.5q0 115 -83.5 181.5t-217.5 72.5h-226l388 581h-383v187h589v-183l-270 -405l8 -2q154 -18 267.5 -138t113.5 -294q0 -182 -127.5 -309.5t-308.5 -127.5q-112 0 -207.5 52.5t-155.5 142.5z" />
<glyph unicode="4" horiz-adv-x="1058" d="M23 666l395 768h190l-280 -588h340v588h186v-588h143l-39 -180h-104v-666h-186v666h-645z" />
<glyph unicode="5" horiz-adv-x="942" d="M74 170l123 127q49 -68 105 -102.5t134 -34.5q118 0 184 73.5t66 178.5q0 114 -85 184t-220 70h-250l82 768h545v-187h-373l-41 -401h92q182 0 309 -126.5t127 -307.5q0 -182 -127.5 -309.5t-308.5 -127.5q-112 0 -207 52.5t-155 142.5z" />
<glyph unicode="6" horiz-adv-x="1044" d="M121 412v532q0 63 14.5 127t51 130.5t91 117t143.5 83t200 32.5h71v-187h-63q-50 0 -93 -8t-86.5 -31t-74 -59.5t-49.5 -97t-19 -140.5v-157q36 39 108.5 65.5t139.5 26.5q182 0 309 -126.5t127 -307.5q0 -182 -127.5 -309.5t-308.5 -127.5t-307.5 127.5t-126.5 309.5z M305 412q0 -104 73 -178t177 -74t177 74t73 178t-72.5 175.5t-177.5 71.5q-103 0 -176 -68.5t-74 -168.5v-10z" />
<glyph unicode="7" horiz-adv-x="923" d="M68 0l614 1247h-598v187h807v-187l-617 -1247h-206z" />
<glyph unicode="8" horiz-adv-x="1038" d="M82 412q0 124 63.5 227t169.5 158q-71 48 -112 126t-41 169q0 151 104.5 255.5t253.5 104.5q151 0 256 -104.5t105 -255.5q0 -92 -42.5 -170.5t-115.5 -126.5q105 -57 168 -159t63 -224q0 -182 -127.5 -309.5t-308.5 -127.5t-308.5 127.5t-127.5 309.5zM268 412 q0 -104 73 -177t177 -73t177 73t73 177q0 105 -71.5 178t-186.5 74q-101 -1 -171.5 -75t-70.5 -177zM342 1092q0 -71 50 -121.5t120 -50.5q78 0 130 50t52 122q0 74 -51 126t-123 52q-74 0 -126 -52t-52 -126z" />
<glyph unicode="9" horiz-adv-x="1044" d="M53 1018q0 182 127.5 309t308.5 127t308 -127t127 -309v-529q0 -63 -14.5 -126.5t-51 -130t-91 -117t-143.5 -83t-200 -32.5h-72v174h80q138 0 222.5 94t84.5 258v148q-50 -43 -106.5 -66.5t-143.5 -23.5q-182 0 -309 126.5t-127 307.5zM240 1018q0 -103 73 -175.5 t176 -72.5t176.5 72.5t73.5 185.5q0 99 -74.5 170.5t-175.5 71.5q-102 0 -175.5 -74.5t-73.5 -177.5z" />
<glyph unicode=":" horiz-adv-x="514" d="M160 324q0 40 28 69t68 29q41 0 69.5 -29t28.5 -69t-28.5 -69.5t-69.5 -29.5q-39 0 -67.5 29.5t-28.5 69.5zM162 760q0 38 29 67t67 29t66 -29t28 -67t-28 -66t-66 -28t-67 28t-29 66z" />
<glyph unicode=";" horiz-adv-x="501" d="M90 -113q44 24 79 51t49 42l13 14l-24 6q-51 29 -51 90q0 40 28.5 66.5t69.5 25.5q45 -3 68.5 -38t23.5 -72q0 -67 -33.5 -124.5t-101.5 -119.5zM158 537q0 38 27 65t65 27t66 -27t28 -65q0 -39 -28 -67t-66 -28t-65 27.5t-27 67.5z" />
<glyph unicode="&#x3c;" horiz-adv-x="1019" d="M133 733v2l569 570l127 -121l-454 -451l450 -454l-123 -115z" />
<glyph unicode="=" horiz-adv-x="974" d="M160 453v180h655v-180h-655zM160 731v180h655v-180h-655z" />
<glyph unicode="&#x3e;" horiz-adv-x="1019" d="M190 1184l127 121l570 -570v-2l-570 -569l-122 115l450 454z" />
<glyph unicode="?" horiz-adv-x="880" d="M63 1090q0 152 95.5 257t269.5 105q85 0 161 -35t127 -95.5t76.5 -135t12 -161t-67.5 -165.5q-33 -48 -75 -93t-67.5 -72.5t-50.5 -68t-37 -101.5t-13 -152v-129h-181v190q0 76 17 140.5t47.5 114.5t60.5 87t69 82t60 76q59 94 49.5 169.5t-60 123t-114.5 47.5 q-89 0 -139.5 -49t-50.5 -135h-189zM311 90q0 38 26.5 65t63.5 27t65 -27t28 -65q0 -36 -28 -63t-65 -27t-63.5 26.5t-26.5 63.5z" />
<glyph unicode="@" horiz-adv-x="1660" d="M119 375v325q0 93 26 171.5t67.5 132.5t98 95t112.5 64t116 35q74 15 149 17.5t149 -8.5t138 -41t113 -75t77.5 -115.5t28.5 -158.5l76 -31v-176l-76 33v-457q-82 -24 -151.5 -40.5t-150.5 -28t-145.5 -10t-127.5 18.5t-106 51.5t-72 95.5t-35 145v207q0 123 45 192 t135 103q53 19 116 22.5t120.5 -6.5t102.5 -23.5t81 -29.5q-6 45 -30 78.5t-60 52t-74 27.5t-78 10q-97 2 -179.5 -17.5t-149 -61.5t-104.5 -115.5t-38 -172.5v-295q0 -88 29 -156.5t76 -111.5t112 -71t131 -39t139 -11q78 0 153.5 11.5t146.5 37t124.5 63.5t86 94.5 t32.5 125.5l-2 358v42.5t1 40.5t4 42.5t7.5 39t12.5 38.5t18.5 33.5t26 32t34.5 26.5t45 23t56 16l55 -145q-36 -15 -55 -41t-23 -50.5t-4 -64.5l2 -363q0 -88 -25.5 -162.5t-68 -128t-102 -95.5t-123.5 -68.5t-137 -43.5t-138.5 -24.5t-130.5 -7.5q-136 -1 -254 34 t-208.5 101.5t-142.5 172t-52 237.5zM580 467q1 -42 12 -76t40.5 -64t75.5 -43.5t123 -6.5t177 40v388q-49 25 -104 42t-113 22t-104.5 -6.5t-76.5 -50t-30 -102.5v-143z" />
<glyph unicode="A" horiz-adv-x="1073" d="M31 0l379 1434h243l400 -1434h-217l-113 420h-377l-108 -420h-207zM391 614h287l-148 512z" />
<glyph unicode="B" horiz-adv-x="1138" d="M162 0v1434h430q169 0 276 -92t107 -267q0 -190 -135 -282q-2 -2 -2 -5v-2q90 -40 150.5 -131t60.5 -233q0 -62 -13 -119t-44.5 -113.5t-79 -97.5t-123.5 -66.5t-171 -25.5h-456zM348 172h205q67 0 114.5 10t88.5 36.5t61.5 78.5t20.5 131q0 66 -21.5 113.5t-59.5 74 t-82.5 38.5t-96.5 12h-230v-494zM348 846h180q116 0 175 49t59 158q0 110 -57.5 153t-165.5 43h-191v-403z" />
<glyph unicode="C" horiz-adv-x="925" d="M129 375v657q0 82 12 142.5t37 103t55 70.5t74 55q93 52 220 52q12 -1 25 -1q143 -6 265 -68l-53 -159q-99 37 -211 37q-98 0 -168 -52t-70 -161v-672q0 -74 30.5 -122t80.5 -68t120 -21h9q65 0 131 12q71 14 152 39l30 -172q-84 -32 -168 -49q-83 -18 -167 -20h-17 q-75 0 -139 20q-72 22 -128 66.5t-88 124t-32 186.5z" />
<glyph unicode="D" horiz-adv-x="1146" d="M162 0v1436h385q230 0 352.5 -127.5t122.5 -337.5v-561q0 -410 -434 -410h-426zM348 170h207q31 0 55.5 1.5t54.5 7t53 14.5t46.5 25.5t38 39t24 56t9.5 75.5v602q0 133 -73 196.5t-196 63.5h-219v-1081z" />
<glyph unicode="E" horiz-adv-x="942" d="M162 0v1434h684v-185h-498v-403h320l-56 -180h-264v-498h494v-168h-680z" />
<glyph unicode="F" horiz-adv-x="878" d="M162 0v1434h684v-185h-498v-403h309l-65 -180h-244v-666h-186z" />
<glyph unicode="G" horiz-adv-x="1060" d="M127 387v643q0 144 45.5 231t132.5 140q93 52 220 52q12 0 25 -1q143 -5 265 -68l-55 -159q-104 39 -199 39q-39 0 -70.5 -4t-66 -17.5t-58 -36.5t-38.5 -63t-15 -94v-666q0 -112 65 -164.5t179 -52.5q98 0 162.5 52.5t64.5 162.5v53h-122l-62 180h369v-614h-168l-19 41 q-89 -61 -223 -61q-84 0 -159 23.5t-137.5 70.5t-99 127.5t-36.5 185.5z" />
<glyph unicode="H" horiz-adv-x="1204" d="M162 0v1434h186v-588h510v588h184v-1434h-184v666h-510v-666h-186z" />
<glyph unicode="I" horiz-adv-x="555" d="M76 1257v177h317v-1434h-188v1253z" />
<glyph unicode="J" horiz-adv-x="585" d="M49 76q26 0 50 4t52.5 17.5t48.5 36t34 62.5t14 93v964l-127 4v177h311v-1164q0 -180 -75 -262.5t-251 -83.5z" />
<glyph unicode="K" horiz-adv-x="1054" d="M162 0v1436h196v-562l377 562h223l-444 -650l533 -786h-230l-414 616l-45 -67v-549h-196z" />
<glyph unicode="L" horiz-adv-x="925" d="M162 0v1434h186v-1264h553v-170h-739z" />
<glyph unicode="M" horiz-adv-x="1421" d="M162 0v1434h186l361 -1057l364 1057h187v-1434h-187v877l-287 -877h-155l-283 874v-874h-186z" />
<glyph unicode="N" horiz-adv-x="1331" d="M162 0v1434h186l633 -1053v1053h188v-1434h-188l-633 1057v-1057h-186z" />
<glyph unicode="O" horiz-adv-x="1114" d="M127 379v659q0 211 116 319.5t318 108.5q203 0 314.5 -115t111.5 -315v-657q0 -87 -25 -157t-66.5 -115t-98 -75t-115.5 -42.5t-123 -12.5t-123 12.5t-116.5 42.5t-99.5 75t-67.5 115t-25.5 157zM313 406q0 -114 64.5 -178t179.5 -64q111 0 177.5 64.5t66.5 179.5v587 q0 136 -56.5 205.5t-187.5 69.5t-187.5 -68.5t-56.5 -204.5v-591z" />
<glyph unicode="P" horiz-adv-x="1120" d="M162 0v1434h479q106 0 187 -37t128.5 -102.5t71 -148.5t23.5 -181q0 -48 -2 -87t-11 -96.5t-24.5 -102t-45 -92.5t-69.5 -80t-101.5 -52.5t-138.5 -20.5h-311v-434h-186zM348 614h266q52 0 92.5 13t66.5 31.5t44.5 50.5t27 57.5t13.5 66.5t5.5 62.5t0.5 59.5v8 q0 161 -65.5 223.5t-192.5 62.5h-258v-635z" />
<glyph unicode="Q" horiz-adv-x="1116" d="M129 379v659q0 211 116 319.5t318 108.5q203 0 314.5 -115t111.5 -315v-657q0 -91 -26.5 -162.5t-71.5 -115.5t-94 -69.5t-103 -35.5q27 -33 68 -44q36 -9 96 -9h23l-19 -164h-13q-259 0 -345 203q-52 4 -101.5 17.5t-100.5 43.5t-88 73t-61 111t-24 152zM315 381 q0 -45 14 -91t50 -84t88 -40q-4 25 -4 115v75h188v-73q0 -97 2 -115q53 3 88.5 37.5t48.5 79.5t13 98v659q0 45 -13 84.5t-40.5 73t-76 53t-114.5 19.5q-244 0 -244 -230v-661z" />
<glyph unicode="R" horiz-adv-x="1161" d="M162 0v1434h491q100 0 178 -37.5t125 -103t71 -149t24 -181.5q0 -47 -1 -76t-5.5 -78.5t-15.5 -86t-28 -79t-47 -78.5t-69 -65l168 -500h-191l-149 438q-16 -4 -47 -4h-318v-434h-186zM348 614h277q48 0 85.5 13.5t61.5 33t41 52.5t25 59t12.5 68t5 63.5t0.5 59.5 q0 160 -66 222t-194 62h-248v-633z" />
<glyph unicode="S" horiz-adv-x="1116" d="M84 365l199 22q9 -97 85 -162t197 -65q134 0 210.5 62t76.5 157q0 64 -25 115t-67.5 85t-97.5 62t-116 51.5t-121.5 48t-115.5 56.5t-97.5 71.5t-67.5 98.5t-25 133q0 66 28.5 128t83.5 113t146 82t205 31q100 0 166 -14.5t133 -46.5q0 -1 -9 -27.5t-25 -72.5t-26 -76 q-120 49 -237 49q-130 0 -200 -50q-65 -46 -65 -120v-11q3 -50 45 -90.5t107.5 -70.5t143.5 -61t156 -70.5t142 -90t104 -129.5t40 -178q0 -88 -28 -161.5t-85 -132t-153.5 -91.5t-223.5 -33q-114 0 -207.5 34.5t-151.5 91.5t-90 124.5t-34 137.5z" />
<glyph unicode="T" horiz-adv-x="888" d="M37 1249v185h823v-185h-323v-1249h-187v1249h-313z" />
<glyph unicode="U" horiz-adv-x="1169" d="M154 381v1055h186v-1002q0 -268 244 -268q245 0 245 268v1002h187v-1055q0 -87 -25.5 -156.5t-67 -113t-98.5 -72.5t-116 -41t-123 -12t-123 12t-116.5 41t-99.5 72.5t-67.5 113t-25.5 156.5z" />
<glyph unicode="V" horiz-adv-x="1028" d="M25 1434h208l281 -1096l277 1096h213l-375 -1434h-228z" />
<glyph unicode="W" horiz-adv-x="1507" d="M41 1434h205l211 -1049l219 1049h160l219 -1049l200 1049h211l-295 -1434h-227l-188 899l-187 -899h-231z" />
<glyph unicode="X" horiz-adv-x="1198" d="M35 0l448 719l-420 715h220l319 -521l311 521h220l-418 -703l450 -731h-235l-336 535l-328 -535h-231z" />
<glyph unicode="Y" horiz-adv-x="1155" d="M90 874v560h186v-553q0 -132 74.5 -197.5t208.5 -65.5q105 0 169 36t85 89v691h186v-1115q0 -158 -64.5 -245.5t-209.5 -104.5l-55 140q62 11 102.5 58.5t40.5 160.5v176q-101 -70 -254 -70q-213 0 -341 117t-128 323z" />
<glyph unicode="Z" horiz-adv-x="1165" d="M80 0v170l749 1081h-723v183h959v-183l-752 -1077h764v-174h-997z" />
<glyph unicode="[" horiz-adv-x="563" d="M154 -233v1906h329v-172l-143 -20v-1522l143 -20v-172h-329z" />
<glyph unicode="\" horiz-adv-x="972" d="M55 1673h201l664 -1906h-199z" />
<glyph unicode="]" horiz-adv-x="563" d="M80 -61l143 20v1522l-143 20v172h330v-1906h-330v172z" />
<glyph unicode="^" horiz-adv-x="1040" d="M223 1552l303 289l291 -289l-117 -79l-176 184l-186 -184z" />
<glyph unicode="_" horiz-adv-x="765" d="M55 0h656v-139h-656v139z" />
<glyph unicode="`" horiz-adv-x="1036" d="M376 1437.5q9 37.5 46 53.5q29 12 66.5 -1t54.5 -54l98 -228h-129l-115 150q-30 42 -21 79.5z" />
<glyph unicode="a" d="M72 346v170q0 203 141 272q67 33 150 33h13q90 -3 168.5 -26t129.5 -56q0 172 -254 172l14 131q89 0 157.5 -15t113 -35t75.5 -59t46.5 -69t23.5 -83.5t9 -83.5t1 -87v-610q-232 -22 -331 -22h-8q-297 5 -395 156q-54 83 -54 212zM258 360q0 -130 105 -180 q64 -31 166 -30q65 0 145 12v391q-38 21 -87 41q-49 18 -108 30q-44 9 -82 9q-13 0 -25 -1q-48 -4 -81 -38t-33 -98v-136z" />
<glyph unicode="b" horiz-adv-x="978" d="M127 0v1434h186v-428q51 22 115 32q37 6 78 7q30 1 62 -3q77 -8 141 -38q174 -80 174 -295v-387q0 -203 -160 -285q-38 -19 -75 -32t-80 -19q-44 -6 -74 -10q-16 -2 -39 -1q-19 0 -45 1q-54 3 -82.5 5t-98.5 9t-102 10zM313 162q57 -13 120.5 -13t124.5 14t100.5 53.5 t39.5 100.5v349q0 71 -31 116.5t-77.5 61t-100.5 15.5t-100 -13.5t-76 -32.5v-651z" />
<glyph unicode="c" horiz-adv-x="813" d="M92 369v262q0 144 58 242.5t152 136.5q78 32 172 33q18 1 38 -1q116 -8 236 -63l-52 -156q-110 41 -195 41q-11 0 -21 -1q-92 -6 -146.5 -64t-54.5 -156v-297q0 -64 31.5 -106t78.5 -59t107 -19q15 -1 29 -1q43 -1 81 5q51 8 96 22l50 -176q-112 -30 -222 -33h-22 q-98 0 -186 25q-122 40 -176 125t-54 240z" />
<glyph unicode="d" horiz-adv-x="978" d="M96 322v387q0 215 174 295q99 40 200 40h18q110 -4 180 -40v430h184v-1434q-32 -3 -102 -10t-98 -9t-82 -5q-25 -1 -46 -1q-24 -1 -40 1q-30 4 -73 10t-80 19t-75 32q-160 82 -160 285zM281 311q0 -70 55.5 -112t141.5 -48q21 -1 42 -1q69 0 148 14v649q-57 31 -122 41 q-30 5 -60 4q-34 0 -66 -6q-60 -12 -99.5 -63t-39.5 -136v-342z" />
<glyph unicode="e" horiz-adv-x="917" d="M98 274v420q0 166 103 258t274 92q170 0 265.5 -91.5t95.5 -252.5v-294l-549 -31v-80q0 -83 55 -121q40 -28 103 -27q23 0 50 3q98 14 220 79l69 -157q-153 -94 -338 -97h-20q-146 0 -234 70q-94 75 -94 229zM287 549l360 20v133q0 84 -53 124t-121 40 q-89 0 -137.5 -48.5t-48.5 -125.5v-143z" />
<glyph unicode="f" horiz-adv-x="530" d="M127 0v1124q0 75 18 134t50 95.5t72 60.5t87 33t91.5 9t89.5 -8l-31 -168q-25 4 -50.5 5.5t-50.5 -8t-44.5 -26t-31.5 -49.5t-12 -78v-98h199l-49 -176h-150v-850h-188z" />
<glyph unicode="g" horiz-adv-x="993" d="M94 360v306q0 180 105.5 279t283.5 99q71 0 125 -20t76 -53l25 55h157v-1157q0 -136 -67.5 -211.5t-218.5 -87.5l-45 145q145 19 145 179v161q-23 -34 -74.5 -57t-130.5 -23q-180 0 -280.5 98t-100.5 287zM281 375q0 -102 47.5 -161.5t146.5 -59.5q205 0 205 278v227 q0 97 -53 150t-152 53q-92 0 -143 -55.5t-51 -151.5v-280z" />
<glyph unicode="h" horiz-adv-x="999" d="M127 0v1434h186v-433q66 37 179 42q12 1 24 1q100 0 193 -38q174 -80 174 -297v-709h-187v655q0 79 -30 129.5t-75 68t-98.5 17.5t-99.5 -13.5t-80 -33.5v-823h-186z" />
<glyph unicode="i" horiz-adv-x="440" d="M121 1354q0 40 31.5 70t72.5 30q40 0 70.5 -30t30.5 -70q0 -41 -30.5 -73t-70.5 -32q-41 0 -72.5 32t-31.5 73zM127 0v1026h186v-1026h-186z" />
<glyph unicode="j" horiz-adv-x="487" d="M25 -285q3 0 8.5 1t21 6t29.5 12.5t31 23t29.5 35.5t21 51.5t8.5 69.5v936l-100 16l-47 160h333v-1180q-4 -115 -90 -194.5t-200 -79.5zM166 1354q0 41 31 70.5t73 29.5q41 0 71 -29.5t30 -70.5q0 -42 -30 -73.5t-71 -31.5t-72.5 32t-31.5 73z" />
<glyph unicode="k" horiz-adv-x="940" d="M127 0v1434h186v-684l342 315l138 -131l-281 -240q245 -407 426 -694h-231l-338 565l-56 -51v-514h-186z" />
<glyph unicode="l" horiz-adv-x="440" d="M127 0v1434h186v-1434h-186z" />
<glyph unicode="m" horiz-adv-x="1521" d="M127 0v1026h170l12 -33q71 37 151 47q23 3 46 2q58 0 115 -17q80 -24 135 -81q39 21 86 45q106 49 208 54q13 1 25 1q87 0 156 -32q78 -36 126 -114.5t48 -188.5v-709h-186v651q0 82 -23 133q-24 52 -66 70q-35 15 -77 15q-9 0 -19 -1q-54 -4 -123 -30l-49 -21 q19 -44 19 -96v-721h-187v647q0 113 -60 169q-56 53 -136 53q-6 -1 -10 -1q-86 -4 -175 -53v-815h-186z" />
<glyph unicode="n" horiz-adv-x="999" d="M127 0v1026h170l14 -33q48 25 114 39q47 10 100 10q22 0 44 -2q78 -6 140 -34q174 -80 174 -297v-709h-187v666q0 98 -60 150q-59 51 -146 50h-3q-88 -1 -176 -47v-819h-184z" />
<glyph unicode="o" horiz-adv-x="944" d="M90 377v270q0 194 99.5 298t285.5 104q178 0 278.5 -107.5t100.5 -294.5v-270q0 -81 -22 -150.5t-66 -126t-118.5 -88.5t-172.5 -32q-97 0 -172.5 32.5t-121 88t-68.5 125.5t-23 151zM276 356q0 -96 55 -146t144 -50t142 51t53 145v291q0 217 -195 217q-87 0 -143 -49.5 t-56 -167.5v-291z" />
<glyph unicode="p" horiz-adv-x="989" d="M127 -430v1456h178l4 -45q31 26 87.5 43.5t113.5 17.5q190 0 289.5 -110.5t99.5 -286.5v-285q0 -186 -104.5 -285.5t-276.5 -99.5q-76 0 -119.5 13.5t-85.5 44.5v-418zM313 369q0 -98 50 -154.5t155 -56.5q100 0 147.5 56t47.5 173v266q0 104 -51.5 156.5t-143.5 52.5 t-148 -50.5t-57 -147.5v-295z" />
<glyph unicode="q" horiz-adv-x="989" d="M90 360v283q0 176 99.5 287.5t289.5 111.5q112 0 201 -67l6 51h176v-1456l-184 45v420q-37 -30 -83.5 -45t-123.5 -15q-172 0 -276.5 99.5t-104.5 285.5zM274 356q0 -95 51 -146.5t146 -51.5q207 0 207 219v272q-1 64 -22 109t-54.5 66t-65 29.5t-65.5 8.5q-23 0 -45 -4 t-51 -18t-50 -38t-36 -68t-15 -103v-275z" />
<glyph unicode="r" horiz-adv-x="684" d="M127 0v1026h176l8 -31q49 26 97 38q42 10 85 10h15q50 -2 83 -7t87 -16l-45 -178q-49 22 -106 24h-13q-50 0 -91 -14q-47 -16 -78.5 -54t-31.5 -89v-709h-186z" />
<glyph unicode="s" horiz-adv-x="866" d="M70 260l184 14q5 -55 57.5 -93t137.5 -38q75 0 125.5 38t50.5 98q0 38 -17 67t-46 48t-67 34.5t-80 29.5t-85 29.5t-83 38t-72 51t-53.5 72.5t-27.5 99q-1 11 -1 23q-1 40 13 79q18 51 56.5 97t112 75t169.5 29q64 0 121.5 -15t82.5 -30l26 -15l-56 -168q-6 5 -19 13.5 t-58 22t-97 13.5q-88 0 -123 -36q-29 -30 -29 -71q0 -8 1 -17q4 -28 29.5 -51t63 -38t84.5 -33t95 -35t94 -45t81.5 -62t57 -87.5t21.5 -120.5q0 -61 -22 -115t-65 -97.5t-116 -69t-167 -25.5q-175 0 -274.5 84t-104.5 207z" />
<glyph unicode="t" horiz-adv-x="548" d="M121 270v1164h188v-408h213l-49 -176h-164v-580q0 -71 37.5 -105t108.5 -44l-56 -148q-151 13 -214.5 90t-63.5 207z" />
<glyph unicode="u" horiz-adv-x="1007" d="M117 352v674h186v-657q0 -106 48 -158.5t151 -52.5q192 0 192 217v651h187v-1026h-176l-7 45q-82 -68 -196 -68q-385 0 -385 375z" />
<glyph unicode="v" horiz-adv-x="868" d="M14 1026h203l219 -725l217 725h201l-322 -1026h-194z" />
<glyph unicode="w" horiz-adv-x="1411" d="M14 1026h203l215 -725l191 725h178l190 -725l205 725h201l-328 -1026h-195l-167 645l-170 -645h-199z" />
<glyph unicode="x" horiz-adv-x="950" d="M43 0l319 510l-319 516h229l205 -334l211 334h225l-323 -514l313 -512h-221l-205 328l-205 -328h-229z" />
<glyph unicode="y" horiz-adv-x="1042" d="M113 360v666h184v-633q0 -129 47 -182t143 -53q103 0 156 51.5t53 183.5v350q0 113 56 197.5t168 103.5l65 -147q-53 -14 -78.5 -54t-25.5 -93v-875q0 -131 -57.5 -206t-196.5 -99l-68 147q60 10 98.5 50t38.5 114v156q-65 -62 -209 -62q-181 0 -277.5 97.5t-96.5 287.5z " />
<glyph unicode="z" horiz-adv-x="899" d="M76 0v174l475 678h-457v174h705v-170l-477 -682h505v-174h-751z" />
<glyph unicode="{" horiz-adv-x="591" d="M57 725q50 40 99 103t49 118v215q0 256 55.5 368t210.5 154l51 -149q-131 -35 -131 -242v-358q0 -88 -119 -207q123 -123 123 -209v-356q0 -115 34 -170.5t97 -71.5l-53 -158q-106 39 -159.5 88.5t-79 144.5t-25.5 265v246q0 28 -14 59t-39.5 61t-45 49t-44.5 42 q-6 5 -9 8z" />
<glyph unicode="|" horiz-adv-x="493" d="M154 -233v1906h186v-1906h-186z" />
<glyph unicode="}" horiz-adv-x="591" d="M66 -80q63 16 97 71.5t34 170.5v356q0 87 122 209q-118 118 -118 207v358q0 207 -131 242l51 149q155 -42 210.5 -154t55.5 -368v-215q0 -55 49 -118t99 -103q-81 -74 -111 -116q-41 -56 -41 -103v-246q0 -170 -25.5 -265t-79 -144.5t-159.5 -88.5z" />
<glyph unicode="~" horiz-adv-x="1081" d="M117 653q49 61 108.5 89t117.5 26.5t118 -15t119 -30t113 -23.5t106 10.5t92 65.5l78 -121q-48 -62 -106 -90t-114.5 -25.5t-116.5 17t-119 31.5t-114 24.5t-110 -11.5t-99 -69z" />
<glyph unicode="&#xa1;" horiz-adv-x="518" d="M158 119l32 1089h136l34 -1091q0 -117 -104 -117q-98 0 -98 119zM168 1364q0 37 26.5 63.5t63.5 26.5q38 0 65 -26.5t27 -63.5q0 -38 -27 -65t-65 -27q-37 0 -63.5 27t-26.5 65z" />
<glyph unicode="&#xa2;" horiz-adv-x="862" d="M111 369v262q0 177 83 280.5t220 126.5v238h184v-244q81 -15 168 -53l-51 -156q-61 24 -117 33v-692q57 5 123 24l49 -176q-91 -22 -172 -28v-217h-184v221q-29 4 -74 16q-122 40 -175.5 125t-53.5 240zM297 346q0 -125 117 -168v666q-117 -52 -117 -201v-297z" />
<glyph unicode="&#xa3;" horiz-adv-x="960" d="M102 0v170q111 19 172.5 96.5t61.5 194.5q0 57 -29 160h-157v184h98q-49 145 -49 250q0 179 111 288t284 109q142 0 223 -51l-57 -168q-80 43 -166 43q-57 0 -100 -22.5t-66 -58t-34 -72.5t-11 -72q0 -73 55 -246h367v-184h-307q29 -110 24 -168q-6 -89 -29.5 -151.5 t-76.5 -127.5h424v-174h-738z" />
<glyph unicode="&#xa4;" horiz-adv-x="1036" d="M133 915l135 127l66 -71q76 51 184 51q117 0 178 -51l74 73l129 -129l-74 -65q20 -39 29 -59.5t17 -55t8 -73.5t-9 -76t-17 -55t-30 -62l70 -68l-121 -127l-76 78q-79 -49 -178 -49q-107 0 -180 49l-72 -80l-123 127l70 68q-53 74 -53 195q0 98 49 180zM330 662 q0 -75 55 -129t133 -54q75 0 129.5 54t54.5 129q0 76 -54.5 131t-129.5 55q-78 0 -133 -54.5t-55 -131.5z" />
<glyph unicode="&#xa5;" horiz-adv-x="1077" d="M55 1434h199l260 -523h43l264 523h201l-264 -523h112v-180h-204l-33 -67v-31h237v-180h-237v-453h-189v453h-229v180h229v31l-34 67h-195v180h104z" />
<glyph unicode="&#xa7;" horiz-adv-x="1142" d="M84 -16h192q3 -80 79 -147.5t210 -67.5q52 0 100 10t95.5 33.5t75.5 69.5t28 110q0 56 -26.5 99.5t-70.5 72.5t-101.5 53t-120.5 46t-126 47t-119 60t-98.5 80t-66 113t-20.5 154q7 113 71 194q-65 81 -65 195q0 66 28 127.5t82.5 112.5t145.5 81.5t205 30.5 q100 0 166 -14.5t133 -46.5q0 -1 -10 -28t-25.5 -71.5t-26.5 -76.5q-115 59 -233 59q-145 0 -209 -49t-64 -131q0 -47 30.5 -84t81 -60.5t115.5 -48.5t133 -47t134.5 -58t119.5 -79t88.5 -112.5t41.5 -157.5q4 -69 -9 -144t-38 -121q47 -71 47 -176q0 -91 -28 -165 t-85.5 -130.5t-153 -88t-223.5 -31.5q-114 0 -207.5 34.5t-151.5 91t-90 124t-34 137.5zM305 684q0 -65 37.5 -112.5t102 -77t132.5 -52t148.5 -52t130.5 -62.5q14 54 14 100q0 58 -31.5 107t-79.5 80.5t-110.5 60t-119.5 47t-112.5 40t-82.5 40.5q-29 -44 -29 -119z" />
<glyph unicode="&#xa8;" horiz-adv-x="1036" d="M291 1442q0 35 24 59.5t58 24.5q35 0 59.5 -24.5t24.5 -59.5q0 -34 -24.5 -58t-59.5 -24q-34 0 -58 24t-24 58zM578 1444q0 34 25 59t59 25q35 0 59 -25t24 -59q0 -35 -24 -59.5t-59 -24.5q-34 0 -59 24.5t-25 59.5z" />
<glyph unicode="&#xa9;" horiz-adv-x="1726" d="M96 510q0 159 60 301t163 242.5t245.5 159.5t301.5 59q158 0 299.5 -59t243.5 -160t161.5 -242.5t59.5 -300.5q0 -162 -61 -305.5t-164 -245t-243.5 -160.5t-295.5 -59q-156 0 -297.5 59t-245.5 160.5t-165.5 245t-61.5 305.5zM287 510q0 -171 77.5 -306.5t209.5 -208.5 t292 -73q158 0 289 73.5t209 209t78 305.5q0 159 -77.5 292.5t-210 210.5t-288.5 77q-160 0 -292 -73.5t-209.5 -207t-77.5 -299.5zM436 506q0 94 29 178.5t82.5 150.5t137 105t185.5 39q149 0 262.5 -87.5t137.5 -229.5h-187q-12 52 -73.5 89t-141.5 37q-65 0 -114 -23.5 t-77.5 -63.5t-42 -88.5t-13.5 -104.5q0 -123 64 -205t185 -82q83 0 146 39t67 98h189q-32 -147 -143.5 -236t-254.5 -89q-202 0 -320 133.5t-118 339.5z" />
<glyph unicode="&#xaa;" horiz-adv-x="753" d="M84 1063q0 80 33 135.5t87.5 78.5t127.5 14t149 -54q0 15 -1.5 26t-6 24t-13.5 21t-23.5 16.5t-36 11t-51.5 5.5t-70 -2l16 113q107 4 174 -12.5t103.5 -58.5t49.5 -98t13 -146v-336q-68 -11 -120 -16.5t-112.5 -6.5t-104 7t-86 27t-69 51t-43 82.5t-16.5 117.5z M227 1051q0 -49 21.5 -80.5t58.5 -43.5t80 -12t94 11v176q-32 18 -62 31t-66.5 20.5t-63 2.5t-44.5 -31.5t-18 -73.5z" />
<glyph unicode="&#xab;" horiz-adv-x="1157" d="M82 547v2l383 383l123 -123l-266 -262l264 -268l-121 -115zM532 547v2l383 383l123 -123l-266 -262l264 -268l-121 -115z" />
<glyph unicode="&#xad;" horiz-adv-x="839" d="M92 666v180h656v-180h-656z" />
<glyph unicode="&#xae;" horiz-adv-x="1726" d="M96 510q0 159 60 301t163 242.5t245.5 159.5t301.5 59q158 0 299.5 -59t243.5 -160t161.5 -242.5t59.5 -300.5q0 -162 -61 -305.5t-164 -245t-243.5 -160.5t-295.5 -59q-156 0 -297.5 59t-245.5 160.5t-165.5 245t-61.5 305.5zM287 510q0 -171 77.5 -306.5t209.5 -208.5 t292 -73q158 0 289 73.5t209 209t78 305.5q0 159 -77.5 292.5t-210 210.5t-288.5 77q-160 0 -292 -73.5t-209.5 -207t-77.5 -299.5zM604 80v895h266q157 0 236.5 -67t79.5 -189q0 -173 -166 -230l184 -409h-190l-164 389h-68v-389h-178zM782 618h82q140 0 140 101 q0 47 -34 75.5t-79 28.5h-109v-205z" />
<glyph unicode="&#xaf;" horiz-adv-x="1038" d="M293 1268v162h452v-162h-452z" />
<glyph unicode="&#xb0;" horiz-adv-x="749" d="M80 1157q0 123 86 209t209 86t209 -86t86 -209t-86 -209t-209 -86t-209 86t-86 209zM240 1157q0 -54 37.5 -94.5t97.5 -40.5t97.5 40.5t37.5 94.5t-37.5 94.5t-97.5 40.5t-97.5 -40.5t-37.5 -94.5z" />
<glyph unicode="&#xb1;" horiz-adv-x="917" d="M131 446v170h240v103h-240v160h240v237h174v-237h241v-160h-241v-103h241v-170h-655z" />
<glyph unicode="&#xb4;" horiz-adv-x="1038" d="M395 1204l99 228q17 41 54 54t66 1q37 -16 46 -53.5t-21 -79.5l-115 -150h-129z" />
<glyph unicode="&#xb5;" horiz-adv-x="1058" d="M129 -412v1438h186v-803q16 -16 91 -43.5t147 -27.5q166 0 166 217v649l188 26v-903q1 -6 3.5 -16.5t16.5 -33.5t36 -36l-152 -67q-5 -2 -21 9.5t-28 29.5q-29 -25 -89.5 -40.5t-135.5 -9.5q-36 5 -68.5 12t-57.5 15t-41.5 14.5t-33.5 14.5t-21 10v-473z" />
<glyph unicode="&#xb6;" horiz-adv-x="1425" d="M72 1073q0 78 13.5 146t43 126.5t73.5 100.5t108 66t143 24h825v-1944h-178v1756l-139 2v-1756l-181 -2v912h-346q-75 0 -133.5 19.5t-96 47.5t-64 78.5t-39.5 91.5t-20 110t-8 109.5t-1 112.5z" />
<glyph unicode="&#xb8;" horiz-adv-x="1038" d="M281 -418l63 135q36 -24 67 -36t48 -13.5t45 -1.5q48 0 85.5 21t37.5 63q0 44 -41 59t-113 -16l-84 -39l-59 86l125 160h125l-66 -90q32 14 72 14q70 0 121 -46t51 -128q0 -57 -26.5 -99.5t-69.5 -65.5t-88 -33.5t-91 -10.5q-93 0 -202 41z" />
<glyph unicode="&#xbb;" horiz-adv-x="1157" d="M119 809l123 123l383 -383v-2l-383 -383l-121 115l266 268zM569 809l123 123l383 -383v-2l-383 -383l-121 115l267 268z" />
<glyph unicode="&#xbf;" horiz-adv-x="921" d="M100.5 426.5q13.5 86.5 67.5 165.5q38 55 91.5 111.5t80 88t48 104t22.5 183.5v129h182v-190q0 -76 -17 -140.5t-47.5 -114.5t-61 -87.5t-69 -82t-59.5 -75.5q-59 -94 -49.5 -169.5t60 -123t114.5 -47.5q88 0 138 49t50 135h191q0 -152 -95.5 -257t-269.5 -105 q-85 0 -161 35t-127 95.5t-76.5 135t-12 161zM412 1362q0 37 27 63.5t65 26.5q37 0 63.5 -26.5t26.5 -63.5q0 -38 -26.5 -65t-63.5 -27q-38 0 -65 27t-27 65z" />
<glyph unicode="&#xc0;" horiz-adv-x="1073" d="M31 0l379 1434h243l400 -1434h-217l-113 420h-377l-108 -420h-207zM306.5 1730.5q8.5 37.5 45.5 53.5q29 12 66.5 -1t54.5 -54l98 -228h-129l-114 150q-30 42 -21.5 79.5zM391 614h287l-148 512z" />
<glyph unicode="&#xc1;" horiz-adv-x="1073" d="M31 0l379 1434h243l400 -1434h-217l-113 420h-377l-108 -420h-207zM391 614h287l-148 512zM473 1497l98 227q17 41 54.5 54.5t66.5 1.5q37 -16 46 -53.5t-21 -79.5l-115 -150h-129z" />
<glyph unicode="&#xc2;" horiz-adv-x="1073" d="M31 0l379 1434h243l400 -1434h-217l-113 420h-377l-108 -420h-207zM238 1579l303 289l290 -289l-116 -80l-176 184l-187 -184zM391 614h287l-148 512z" />
<glyph unicode="&#xc3;" horiz-adv-x="1073" d="M31 0l379 1434h243l400 -1434h-217l-113 420h-377l-108 -420h-207zM190 1618q52 59 104.5 85t97 22.5t89 -19t87 -33.5t83 -27t85.5 6.5t87 61.5l74 -115q-51 -60 -102 -86t-94.5 -21.5t-87 21t-86.5 35t-84.5 27.5t-89 -7.5t-93.5 -64.5zM391 614h287l-148 512z" />
<glyph unicode="&#xc4;" horiz-adv-x="1073" d="M31 0l379 1434h243l400 -1434h-217l-113 420h-377l-108 -420h-207zM303 1579q0 35 24 59.5t58 24.5q35 0 59.5 -24.5t24.5 -59.5q0 -34 -24.5 -58t-59.5 -24q-34 0 -58 24t-24 58zM391 614h287l-148 512zM590 1581q0 34 25 59t59 25q35 0 59.5 -25t24.5 -59 q0 -35 -24.5 -59.5t-59.5 -24.5q-34 0 -59 24.5t-25 59.5z" />
<glyph unicode="&#xc5;" horiz-adv-x="1073" d="M33 0l368 1397q-90 67 -90 180q0 92 66 157.5t158 65.5t157.5 -65.5t65.5 -157.5q0 -54 -25 -102.5t-67 -79.5l389 -1395h-217l-113 420h-377l-108 -420h-207zM393 614h287l-148 512zM446 1577q0 -37 26 -62.5t63 -25.5t62.5 25.5t25.5 62.5t-25.5 62.5t-62.5 25.5 t-63 -25.5t-26 -62.5z" />
<glyph unicode="&#xc6;" horiz-adv-x="1519" d="M-12 0l749 1434h686v-185h-497v-403h340l-60 -180h-280v-496h493v-170h-682l2 434h-311l-225 -434h-215zM520 614h219v424z" />
<glyph unicode="&#xc7;" horiz-adv-x="925" d="M129 375v657q0 82 12 142.5t37 103t55 70.5t74 55q102 57 245 51.5t265 -68.5l-53 -159q-99 37 -211 37q-98 0 -168 -52t-70 -161v-672q0 -74 30.5 -122t80.5 -68t119.5 -21t140.5 12.5t152 38.5l30 -172q-165 -64 -329 -67l-50 -70q31 14 72 14q70 0 121 -46t51 -128 q0 -57 -26.5 -99.5t-69 -65.5t-87.5 -33.5t-91 -10.5q-94 0 -203 41l63 135q36 -24 67 -36t48 -13.5t45 -1.5q48 0 85.5 21t37.5 63q0 44 -40.5 59t-112.5 -16l-84 -39l-60 86l115 148q-134 25 -212.5 119t-78.5 268z" />
<glyph unicode="&#xc8;" horiz-adv-x="942" d="M162 0v1434h684v-185h-498v-403h320l-56 -180h-264v-498h494v-168h-680zM302.5 1728.5q8.5 37.5 45.5 53.5q29 12 66.5 -1.5t54.5 -54.5l98 -227h-129l-114 150q-30 42 -21.5 79.5z" />
<glyph unicode="&#xc9;" horiz-adv-x="942" d="M162 0v1434h684v-185h-498v-403h320l-56 -180h-264v-498h494v-168h-680zM487 1495l99 227q17 41 54.5 54.5t66.5 1.5q37 -16 45.5 -53.5t-21.5 -79.5l-115 -150h-129z" />
<glyph unicode="&#xca;" horiz-adv-x="942" d="M162 0v1434h684v-185h-498v-403h320l-56 -180h-264v-498h494v-168h-680zM211 1579l303 289l291 -289l-117 -80l-176 184l-186 -184z" />
<glyph unicode="&#xcb;" horiz-adv-x="942" d="M162 0v1434h684v-185h-498v-403h320l-56 -180h-264v-498h494v-168h-680zM270 1579q0 35 24 59.5t58 24.5q35 0 59.5 -24.5t24.5 -59.5q0 -34 -24.5 -58t-59.5 -24q-34 0 -58 24t-24 58zM557 1581q0 34 25 59t59 25q35 0 59.5 -25t24.5 -59q0 -35 -24.5 -59.5t-59.5 -24.5 q-34 0 -59 24.5t-25 59.5z" />
<glyph unicode="&#xcc;" horiz-adv-x="555" d="M76 1257v177h317v-1434h-188v1253zM116 1728.5q9 37.5 46 53.5q29 12 66.5 -1.5t54.5 -54.5l98 -227h-129l-115 150q-30 42 -21 79.5z" />
<glyph unicode="&#xcd;" horiz-adv-x="555" d="M76 1257v177h317v-1434h-188v1253zM244 1495l98 227q17 41 54.5 54.5t66.5 1.5q37 -16 45.5 -53.5t-21.5 -79.5l-114 -150h-129z" />
<glyph unicode="&#xce;" horiz-adv-x="555" d="M-8 1579l303 289l291 -289l-117 -80l-176 184l-187 -184zM76 1257v177h317v-1434h-188v1253z" />
<glyph unicode="&#xcf;" horiz-adv-x="555" d="M41 1575q0 35 24 59.5t58 24.5q35 0 59.5 -24.5t24.5 -59.5q0 -34 -24.5 -58t-59.5 -24q-34 0 -58 24t-24 58zM76 1257v177h317v-1434h-188v1253zM328 1577q0 34 25 59t59 25q35 0 59.5 -25t24.5 -59q0 -35 -24.5 -59.5t-59.5 -24.5q-34 0 -59 24.5t-25 59.5z" />
<glyph unicode="&#xd0;" horiz-adv-x="1236" d="M92 870v181h101v385h385q207 0 326.5 -104t142.5 -281h124v-181h-118v-460q0 -410 -435 -410h-425v870h-101zM379 170h207q44 0 77.5 3.5t74 16t66.5 35t44 64.5t18 100v481h-487v-700zM379 1051h483q-17 101 -87 150.5t-177 49.5h-219v-200z" />
<glyph unicode="&#xd1;" horiz-adv-x="1331" d="M162 0v1434h186l633 -1053v1053h188v-1434h-188l-633 1057v-1057h-186zM326 1616q52 59 104 85t97 22.5t89 -19t86.5 -33.5t83 -27t85.5 6.5t87 61.5l74 -115q-51 -60 -102 -86t-94.5 -21.5t-87 21t-86.5 35t-84.5 27.5t-89 -7.5t-93.5 -64.5z" />
<glyph unicode="&#xd2;" horiz-adv-x="1114" d="M127 379v659q0 211 116 319.5t318 108.5q203 0 314.5 -115t111.5 -315v-657q0 -87 -25 -157t-66.5 -115t-98 -75t-115.5 -42.5t-123 -12.5t-123 12.5t-116.5 42.5t-99.5 75t-67.5 115t-25.5 157zM313 406q0 -114 64.5 -178t179.5 -64q111 0 177.5 64.5t66.5 179.5v587 q0 136 -56.5 205.5t-187.5 69.5t-187.5 -68.5t-56.5 -204.5v-591zM343.5 1728.5q8.5 37.5 45.5 53.5q29 12 66.5 -1.5t54.5 -54.5l98 -227h-129l-114 150q-30 42 -21.5 79.5z" />
<glyph unicode="&#xd3;" horiz-adv-x="1114" d="M127 379v659q0 211 116 319.5t318 108.5q203 0 314.5 -115t111.5 -315v-657q0 -87 -25 -157t-66.5 -115t-98 -75t-115.5 -42.5t-123 -12.5t-123 12.5t-116.5 42.5t-99.5 75t-67.5 115t-25.5 157zM313 406q0 -114 64.5 -178t179.5 -64q111 0 177.5 64.5t66.5 179.5v587 q0 136 -56.5 205.5t-187.5 69.5t-187.5 -68.5t-56.5 -204.5v-591zM524 1495l99 227q17 41 54.5 54.5t65.5 1.5q37 -16 46 -53.5t-21 -79.5l-115 -150h-129z" />
<glyph unicode="&#xd4;" horiz-adv-x="1114" d="M127 379v659q0 211 116 319.5t318 108.5q203 0 314.5 -115t111.5 -315v-657q0 -87 -25 -157t-66.5 -115t-98 -75t-115.5 -42.5t-123 -12.5t-123 12.5t-116.5 42.5t-99.5 75t-67.5 115t-25.5 157zM266 1579l303 289l291 -289l-117 -80l-176 184l-186 -184zM313 406 q0 -114 64.5 -178t179.5 -64q111 0 177.5 64.5t66.5 179.5v587q0 136 -56.5 205.5t-187.5 69.5t-187.5 -68.5t-56.5 -204.5v-591z" />
<glyph unicode="&#xd5;" horiz-adv-x="1114" d="M127 379v659q0 211 116 319.5t318 108.5q203 0 314.5 -115t111.5 -315v-657q0 -87 -25 -157t-66.5 -115t-98 -75t-115.5 -42.5t-123 -12.5t-123 12.5t-116.5 42.5t-99.5 75t-67.5 115t-25.5 157zM225 1620q52 59 104.5 85t97 22.5t89 -19t87 -33.5t83 -27t85.5 6.5 t87 61.5l74 -114q-51 -60 -102 -86t-94.5 -21.5t-87 20.5t-86.5 35t-84.5 28t-89 -8t-93.5 -65zM313 406q0 -114 64.5 -178t179.5 -64q111 0 177.5 64.5t66.5 179.5v587q0 136 -56.5 205.5t-187.5 69.5t-187.5 -68.5t-56.5 -204.5v-591z" />
<glyph unicode="&#xd6;" horiz-adv-x="1114" d="M127 379v659q0 211 116 319.5t318 108.5q203 0 314.5 -115t111.5 -315v-657q0 -87 -25 -157t-66.5 -115t-98 -75t-115.5 -42.5t-123 -12.5t-123 12.5t-116.5 42.5t-99.5 75t-67.5 115t-25.5 157zM313 406q0 -114 64.5 -178t179.5 -64q111 0 177.5 64.5t66.5 179.5v587 q0 136 -56.5 205.5t-187.5 69.5t-187.5 -68.5t-56.5 -204.5v-591zM326 1579q0 35 24 59.5t58 24.5q35 0 59.5 -24.5t24.5 -59.5q0 -34 -24.5 -58t-59.5 -24q-34 0 -58 24t-24 58zM612 1581q0 34 25 59t59 25q35 0 59.5 -25t24.5 -59q0 -35 -24.5 -59.5t-59.5 -24.5 q-34 0 -59 24.5t-25 59.5z" />
<glyph unicode="&#xd7;" horiz-adv-x="909" d="M139 928l123 104l189 -225l186 227l125 -102l-207 -250l205 -246l-123 -106l-186 223l-187 -225l-121 108l201 246z" />
<glyph unicode="&#xd8;" horiz-adv-x="1132" d="M139 379v659q0 211 116 319.5t318 108.5q82 0 156 -22l80 229h201l-115 -327q104 -116 104 -310v-657q0 -87 -25 -157t-66.5 -115t-98 -75t-115.5 -42.5t-123 -12.5q-73 0 -147 19l-80 -229h-199l111 317q-117 102 -117 295zM326 406q0 -48 12 -89l326 940q-44 13 -95 13 q-130 0 -186.5 -68.5t-56.5 -204.5v-591zM485 174q34 -10 84 -10q111 0 177.5 64.5t66.5 179.5v587q0 34 -8 92z" />
<glyph unicode="&#xd9;" horiz-adv-x="1169" d="M154 381v1055h186v-1002q0 -268 244 -268q245 0 245 268v1002h187v-1055q0 -87 -25.5 -156.5t-67 -113t-98.5 -72.5t-116 -41t-123 -12t-123 12t-116.5 41t-99.5 72.5t-67.5 113t-25.5 156.5zM384.5 1728.5q8.5 37.5 45.5 53.5q29 12 66.5 -1.5t54.5 -54.5l98 -227h-129 l-114 150q-30 42 -21.5 79.5z" />
<glyph unicode="&#xda;" horiz-adv-x="1169" d="M154 381v1055h186v-1002q0 -268 244 -268q245 0 245 268v1002h187v-1055q0 -87 -25.5 -156.5t-67 -113t-98.5 -72.5t-116 -41t-123 -12t-123 12t-116.5 41t-99.5 72.5t-67.5 113t-25.5 156.5zM520 1497l98 227q17 41 54.5 54.5t66.5 1.5q37 -16 46 -53.5t-21 -79.5 l-115 -150h-129z" />
<glyph unicode="&#xdb;" horiz-adv-x="1169" d="M154 381v1055h186v-1002q0 -268 244 -268q245 0 245 268v1002h187v-1055q0 -87 -25.5 -156.5t-67 -113t-98.5 -72.5t-116 -41t-123 -12t-123 12t-116.5 41t-99.5 72.5t-67.5 113t-25.5 156.5zM289 1579l303 289l291 -289l-117 -80l-176 184l-187 -184z" />
<glyph unicode="&#xdc;" horiz-adv-x="1169" d="M154 381v1055h186v-1002q0 -268 244 -268q245 0 245 268v1002h187v-1055q0 -87 -25.5 -156.5t-67 -113t-98.5 -72.5t-116 -41t-123 -12t-123 12t-116.5 41t-99.5 72.5t-67.5 113t-25.5 156.5zM354 1579q0 35 24 59.5t58 24.5q35 0 59.5 -24.5t24.5 -59.5q0 -34 -24.5 -58 t-59.5 -24q-34 0 -58 24t-24 58zM641 1581q0 34 25 59t59 25q35 0 59.5 -25t24.5 -59q0 -35 -24.5 -59.5t-59.5 -24.5q-34 0 -59 24.5t-25 59.5z" />
<glyph unicode="&#xdd;" horiz-adv-x="1155" d="M90 874v560h186v-553q0 -132 74.5 -197.5t208.5 -65.5q105 0 169 36t85 89v691h186v-1115q0 -158 -64.5 -245.5t-209.5 -104.5l-55 140q62 11 102.5 58.5t40.5 160.5v176q-101 -70 -254 -70q-213 0 -341 117t-128 323zM483 1497l99 227q17 41 54.5 54.5t65.5 1.5 q37 -16 46 -53.5t-21 -79.5l-115 -150h-129z" />
<glyph unicode="&#xde;" horiz-adv-x="991" d="M162 0v1434h184v-453q37 28 91.5 44.5t107.5 16.5q190 0 289.5 -110.5t99.5 -286.5q0 -193 -105 -300t-276 -107q-53 0 -111 19.5t-96 59.5v-317h-184zM346 655q0 -124 59.5 -182.5t147.5 -58.5q81 0 139 56.5t58 178.5q0 95 -53.5 156t-143.5 61q-80 0 -143 -55.5 t-64 -155.5z" />
<glyph unicode="&#xdf;" horiz-adv-x="1052" d="M127 0v1100q0 153 83 244.5t232 91.5q76 0 135.5 -25.5t94.5 -66t53.5 -91.5t17 -102t-20.5 -98t-54 -78l-47 2q-17 -28 -19.5 -56t10 -54.5t31.5 -51t49.5 -53t60 -54t67 -60t65.5 -64.5q40 -42 67.5 -89.5t44 -103t10.5 -119.5t-36 -127q-40 -80 -119 -123.5 t-166 -45.5t-173 24.5t-146 75.5l86 168q58 -55 127.5 -76t124 -6.5t79.5 55.5q79 129 -69 281q-30 32 -84 81t-88.5 81t-71.5 79.5t-51.5 89t-10 96.5t36.5 113q42 0 70.5 22.5t35.5 55t1 64.5t-33 54.5t-67 22.5q-140 0 -140 -196v-1061h-186z" />
<glyph unicode="&#xe0;" d="M72 346v170q0 203 141 272q73 36 163.5 33t168.5 -26t129 -56q0 172 -254 172l14 131q89 0 157.5 -15t113 -35t75.5 -59t46.5 -69t23.5 -83.5t9 -83.5t1 -87v-610q-242 -23 -339 -22q-297 5 -395 156q-54 83 -54 212zM257.5 1335q8.5 38 45.5 54q29 12 66.5 -1.5 t54.5 -54.5l98 -227h-129l-114 149q-30 42 -21.5 80zM258 360q0 -129 105 -179.5t311 -18.5v391q-38 21 -87 40.5t-108 31t-107.5 7.5t-81 -38t-32.5 -98v-136z" />
<glyph unicode="&#xe1;" d="M72 346v170q0 203 141 272q73 36 163.5 33t168.5 -26t129 -56q0 172 -254 172l14 131q89 0 157.5 -15t113 -35t75.5 -59t46.5 -69t23.5 -83.5t9 -83.5t1 -87v-610q-242 -23 -339 -22q-297 5 -395 156q-54 83 -54 212zM258 360q0 -129 105 -179.5t311 -18.5v391 q-38 21 -87 40.5t-108 31t-107.5 7.5t-81 -38t-32.5 -98v-136zM440 1102l99 227q17 41 54 54t66 1q37 -16 46 -53.5t-21 -79.5l-115 -149h-129z" />
<glyph unicode="&#xe2;" d="M72 346v170q0 203 141 272q73 36 163.5 33t168.5 -26t129 -56q0 172 -254 172l14 131q89 0 157.5 -15t113 -35t75.5 -59t46.5 -69t23.5 -83.5t9 -83.5t1 -87v-610q-242 -23 -339 -22q-297 5 -395 156q-54 83 -54 212zM188 1184l304 289l290 -289l-116 -80l-177 184 l-186 -184zM258 360q0 -129 105 -179.5t311 -18.5v391q-38 21 -87 40.5t-108 31t-107.5 7.5t-81 -38t-32.5 -98v-136z" />
<glyph unicode="&#xe3;" d="M72 346v170q0 203 141 272q73 36 163.5 33t168.5 -26t129 -56q0 172 -254 172l14 131q89 0 157.5 -15t113 -35t75.5 -59t46.5 -69t23.5 -83.5t9 -83.5t1 -87v-610q-242 -23 -339 -22q-297 5 -395 156q-54 83 -54 212zM123 1231q52 59 104.5 85t97 22.5t89 -19t87 -33.5 t83 -27t85.5 6.5t87 61.5l73 -115q-51 -60 -101.5 -86t-94.5 -21.5t-87.5 21t-86 35t-84.5 27.5t-89 -7.5t-93 -64.5zM258 360q0 -129 105 -179.5t311 -18.5v391q-38 21 -87 40.5t-108 31t-107.5 7.5t-81 -38t-32.5 -98v-136z" />
<glyph unicode="&#xe4;" d="M72 346v170q0 203 141 272q73 36 163.5 33t168.5 -26t129 -56q0 172 -254 172l14 131q89 0 157.5 -15t113 -35t75.5 -59t46.5 -69t23.5 -83.5t9 -83.5t1 -87v-610q-242 -23 -339 -22q-297 5 -395 156q-54 83 -54 212zM258 360q0 -129 105 -179.5t311 -18.5v391 q-38 21 -87 40.5t-108 31t-107.5 7.5t-81 -38t-32.5 -98v-136zM260 1186q0 35 24 59.5t58 24.5q35 0 59.5 -24.5t24.5 -59.5q0 -34 -24.5 -58t-59.5 -24q-34 0 -58 24t-24 58zM547 1188q0 34 25 59t59 25q35 0 59.5 -25t24.5 -59q0 -35 -24.5 -59.5t-59.5 -24.5 q-34 0 -59 24.5t-25 59.5z" />
<glyph unicode="&#xe5;" horiz-adv-x="972" d="M74 346v170q0 203 141 272q73 36 163.5 33t168.5 -26t129 -56q0 172 -254 172v2q-84 9 -140.5 72.5t-56.5 149.5q0 92 66 157.5t158 65.5t157.5 -65.5t65.5 -157.5q0 -63 -33 -117q41 -12 73.5 -29t55.5 -41t39.5 -46t26.5 -54.5t16 -55.5t8.5 -61.5t3 -59.5t0.5 -61 v-610q-242 -23 -339 -22q-297 5 -395 156q-54 83 -54 212zM260 360q0 -129 105 -179.5t311 -18.5v391q-38 21 -87 40.5t-108 31t-107.5 7.5t-81 -38t-32.5 -98v-136zM360 1135q0 -37 26 -62.5t63 -25.5t62.5 25.5t25.5 62.5t-25.5 62.5t-62.5 25.5t-63 -25.5t-26 -62.5z" />
<glyph unicode="&#xe6;" horiz-adv-x="1492" d="M72 346v170q0 203 141 272q73 36 163.5 33t168.5 -26t129 -56q0 172 -254 172l14 131q233 0 336 -96q103 98 281 98q170 0 265 -91t95 -253v-294l-549 -31v-80q0 -83 55 -121t153 -24t220 79l70 -157q-153 -94 -338 -97q-96 -3 -172 25q-242 -23 -345 -21 q-294 8 -387 167q-46 80 -46 200zM258 360q0 -129 105 -179.5t311 -18.5v391q-38 21 -87 40.5t-108 31t-107.5 7.5t-81 -38t-32.5 -98v-136zM862 549l361 20v133q0 84 -53 124t-121 40q-89 0 -138 -48.5t-49 -125.5v-143z" />
<glyph unicode="&#xe7;" horiz-adv-x="813" d="M92 369v262q0 144 58 242.5t151.5 137t210 31t236.5 -62.5l-52 -156q-124 46 -216.5 40t-146.5 -64t-54 -156v-297q0 -64 31.5 -106t78.5 -59t106.5 -19.5t110.5 5t96 21.5l50 -176q-148 -38 -273 -32l-49 -70q31 14 72 14q70 0 121 -46t51 -128q0 -57 -26.5 -99.5 t-69.5 -65.5t-88 -33.5t-91 -10.5q-93 0 -202 41l63 135q36 -24 67 -36t48 -13.5t45 -1.5q48 0 85.5 21t37.5 63q0 44 -41 59t-113 -16l-84 -39l-59 86l119 154q-16 2 -43 10q-122 40 -176 125t-54 240z" />
<glyph unicode="&#xe8;" horiz-adv-x="917" d="M98 274v420q0 166 103 258t274 92q170 0 265.5 -91.5t95.5 -252.5v-294l-549 -31v-80q0 -83 55 -121t153 -24t220 79l69 -157q-153 -94 -338 -97q-159 -5 -253.5 70t-94.5 229zM267.5 1335q8.5 38 45.5 54q29 12 66.5 -1.5t54.5 -54.5l98 -227h-129l-114 149 q-30 42 -21.5 80zM287 549l360 20v133q0 84 -53 124t-121 40q-89 0 -137.5 -48.5t-48.5 -125.5v-143z" />
<glyph unicode="&#xe9;" horiz-adv-x="917" d="M98 274v420q0 166 103 258t274 92q170 0 265.5 -91.5t95.5 -252.5v-294l-549 -31v-80q0 -83 55 -121t153 -24t220 79l69 -157q-153 -94 -338 -97q-159 -5 -253.5 70t-94.5 229zM287 549l360 20v133q0 84 -53 124t-121 40q-89 0 -137.5 -48.5t-48.5 -125.5v-143zM430 1102 l98 227q17 41 54.5 54t66.5 1q37 -16 46 -53.5t-21 -79.5l-115 -149h-129z" />
<glyph unicode="&#xea;" horiz-adv-x="917" d="M98 274v420q0 166 103 258t274 92q170 0 265.5 -91.5t95.5 -252.5v-294l-549 -31v-80q0 -83 55 -121t153 -24t220 79l69 -157q-153 -94 -338 -97q-159 -5 -253.5 70t-94.5 229zM201 1184l303 289l291 -289l-117 -80l-176 184l-187 -184zM287 549l360 20v133q0 84 -53 124 t-121 40q-89 0 -137.5 -48.5t-48.5 -125.5v-143z" />
<glyph unicode="&#xeb;" horiz-adv-x="917" d="M98 274v420q0 166 103 258t274 92q170 0 265.5 -91.5t95.5 -252.5v-294l-549 -31v-80q0 -83 55 -121t153 -24t220 79l69 -157q-153 -94 -338 -97q-159 -5 -253.5 70t-94.5 229zM242 1186q0 35 24 59.5t58 24.5q35 0 59.5 -24.5t24.5 -59.5q0 -34 -24.5 -58t-59.5 -24 q-34 0 -58 24t-24 58zM287 549l360 20v133q0 84 -53 124t-121 40q-89 0 -137.5 -48.5t-48.5 -125.5v-143zM528 1188q0 34 25 59t59 25q35 0 59.5 -25t24.5 -59q0 -35 -24.5 -59.5t-59.5 -24.5q-34 0 -59 24.5t-25 59.5z" />
<glyph unicode="&#xec;" horiz-adv-x="440" d="M11.5 1335q8.5 38 45.5 54q29 12 66.5 -1.5t54.5 -54.5l98 -227h-129l-114 149q-30 42 -21.5 80zM127 0v1026h186v-1026h-186z" />
<glyph unicode="&#xed;" horiz-adv-x="440" d="M127 0v1026h186v-1026h-186zM164 1102l98 227q17 41 54.5 54t66.5 1q37 -16 46 -53.5t-21 -79.5l-115 -149h-129z" />
<glyph unicode="&#xee;" horiz-adv-x="440" d="M-80 1184l303 289l291 -289l-117 -80l-176 184l-186 -184zM127 0v1026h186v-1026h-186z" />
<glyph unicode="&#xef;" horiz-adv-x="440" d="M-4 1186q0 35 24 59.5t58 24.5q35 0 59.5 -24.5t24.5 -59.5q0 -34 -24.5 -58t-59.5 -24q-34 0 -58 24t-24 58zM127 0v1026h186v-1026h-186zM283 1188q0 34 25 59t59 25q35 0 59.5 -25t24.5 -59q0 -35 -24.5 -59.5t-59.5 -24.5q-34 0 -59 24.5t-25 59.5z" />
<glyph unicode="&#xf0;" horiz-adv-x="493" />
<glyph unicode="&#xf1;" horiz-adv-x="999" d="M127 0v1026h170l14 -33q48 26 114 39.5t144 8t140 -34.5q174 -80 174 -297v-709h-187v666q0 98 -60.5 149.5t-148.5 50.5t-176 -47v-819h-184zM156 1233q52 59 104 85t97 22.5t89 -19t86.5 -33.5t83 -27t85.5 6.5t87 61.5l74 -115q-51 -60 -102 -86t-94.5 -21.5t-87 21 t-86.5 35t-84.5 27.5t-89 -7.5t-93.5 -64.5z" />
<glyph unicode="&#xf2;" horiz-adv-x="944" d="M90 377v270q0 194 99.5 298t285.5 104q178 0 278.5 -107.5t100.5 -294.5v-270q0 -81 -22 -150.5t-66 -126t-118.5 -88.5t-172.5 -32q-97 0 -172.5 32.5t-121 88t-68.5 125.5t-23 151zM257.5 1335q8.5 38 45.5 54q29 12 66.5 -1.5t54.5 -54.5l98 -227h-129l-114 149 q-30 42 -21.5 80zM276 356q0 -96 55 -146t144 -50t142 51t53 145v291q0 217 -195 217q-87 0 -143 -49.5t-56 -167.5v-291z" />
<glyph unicode="&#xf3;" horiz-adv-x="944" d="M90 377v270q0 194 99.5 298t285.5 104q178 0 278.5 -107.5t100.5 -294.5v-270q0 -81 -22 -150.5t-66 -126t-118.5 -88.5t-172.5 -32q-97 0 -172.5 32.5t-121 88t-68.5 125.5t-23 151zM276 356q0 -96 55 -146t144 -50t142 51t53 145v291q0 217 -195 217q-87 0 -143 -49.5 t-56 -167.5v-291zM420 1102l98 227q17 41 54.5 54t66.5 1q37 -16 46 -53.5t-21 -79.5l-115 -149h-129z" />
<glyph unicode="&#xf4;" horiz-adv-x="944" d="M90 377v270q0 194 99.5 298t285.5 104q178 0 278.5 -107.5t100.5 -294.5v-270q0 -81 -22 -150.5t-66 -126t-118.5 -88.5t-172.5 -32q-97 0 -172.5 32.5t-121 88t-68.5 125.5t-23 151zM184 1184l303 289l291 -289l-116 -80l-177 184l-186 -184zM276 356q0 -96 55 -146 t144 -50t142 51t53 145v291q0 217 -195 217q-87 0 -143 -49.5t-56 -167.5v-291z" />
<glyph unicode="&#xf5;" horiz-adv-x="944" d="M90 377v270q0 194 99.5 298t285.5 104q178 0 278.5 -107.5t100.5 -294.5v-270q0 -81 -22 -150.5t-66 -126t-118.5 -88.5t-172.5 -32q-97 0 -172.5 32.5t-121 88t-68.5 125.5t-23 151zM137 1198q52 59 104.5 85t97 22.5t89 -19t87 -33.5t83 -27t85.5 6.5t87 61.5l74 -114 q-51 -60 -102 -86t-94.5 -21.5t-87 20.5t-86.5 35t-84.5 28t-89 -8t-93.5 -65zM276 356q0 -96 55 -146t144 -50t142 51t53 145v291q0 217 -195 217q-87 0 -143 -49.5t-56 -167.5v-291z" />
<glyph unicode="&#xf6;" horiz-adv-x="944" d="M90 377v270q0 194 99.5 298t285.5 104q178 0 278.5 -107.5t100.5 -294.5v-270q0 -81 -22 -150.5t-66 -126t-118.5 -88.5t-172.5 -32q-97 0 -172.5 32.5t-121 88t-68.5 125.5t-23 151zM256 1186q0 35 24 59.5t58 24.5q35 0 59.5 -24.5t24.5 -59.5q0 -34 -24.5 -58 t-59.5 -24q-34 0 -58 24t-24 58zM276 356q0 -96 55 -146t144 -50t142 51t53 145v291q0 217 -195 217q-87 0 -143 -49.5t-56 -167.5v-291zM543 1188q0 34 25 59t59 25q35 0 59.5 -25t24.5 -59q0 -35 -24.5 -59.5t-59.5 -24.5q-34 0 -59 24.5t-25 59.5z" />
<glyph unicode="&#xf7;" horiz-adv-x="864" d="M104 709v157h656v-157h-656zM342 532q0 38 28 66.5t68 28.5q38 0 66 -28.5t28 -66.5q0 -40 -28 -68t-66 -28q-40 0 -68 28t-28 68zM342 1034q0 38 28 66t68 28q38 0 66 -28t28 -66t-28 -67t-66 -29q-39 0 -67.5 28.5t-28.5 67.5z" />
<glyph unicode="&#xf8;" horiz-adv-x="960" d="M98 377v270q0 194 99.5 298t285.5 104q65 0 127 -19l76 174h184l-112 -260q104 -107 104 -297v-270q0 -81 -22 -150.5t-66 -126t-118.5 -88.5t-172.5 -32q-73 0 -135 18l-57 -135h-180l94 221q-107 107 -107 293zM285 356q0 -40 8 -67l244 569q-24 6 -54 6 q-40 0 -73.5 -10t-62.5 -33.5t-45.5 -67.5t-16.5 -106v-291zM422 166q27 -6 61 -6q89 0 142 51t53 145v291q0 46 -10 88z" />
<glyph unicode="&#xf9;" horiz-adv-x="1007" d="M117 352v674h186v-657q0 -106 48 -158.5t151 -52.5q192 0 192 217v651h187v-1026h-176l-7 45q-82 -68 -196 -68q-385 0 -385 375zM298 1335q9 38 46 54q29 12 66.5 -1.5t54.5 -54.5l98 -227h-129l-115 149q-30 42 -21 80z" />
<glyph unicode="&#xfa;" horiz-adv-x="1007" d="M117 352v674h186v-657q0 -106 48 -158.5t151 -52.5q192 0 192 217v651h187v-1026h-176l-7 45q-82 -68 -196 -68q-385 0 -385 375zM446 1102l99 227q17 41 54.5 54t66.5 1q37 -16 45.5 -53.5t-21.5 -79.5l-115 -149h-129z" />
<glyph unicode="&#xfb;" horiz-adv-x="1007" d="M117 352v674h186v-657q0 -106 48 -158.5t151 -52.5q192 0 192 217v651h187v-1026h-176l-7 45q-82 -68 -196 -68q-385 0 -385 375zM203 1184l303 289l291 -289l-117 -80l-176 184l-187 -184z" />
<glyph unicode="&#xfc;" horiz-adv-x="1007" d="M117 352v674h186v-657q0 -106 48 -158.5t151 -52.5q192 0 192 217v651h187v-1026h-176l-7 45q-82 -68 -196 -68q-385 0 -385 375zM272 1186q0 35 24 59.5t58 24.5q35 0 59.5 -24.5t24.5 -59.5q0 -34 -24.5 -58t-59.5 -24q-34 0 -58 24t-24 58zM559 1188q0 34 25 59t59 25 q35 0 59.5 -25t24.5 -59q0 -35 -24.5 -59.5t-59.5 -24.5q-34 0 -59 24.5t-25 59.5z" />
<glyph unicode="&#xfd;" horiz-adv-x="1042" d="M113 360v666h184v-633q0 -129 47 -182t143 -53q103 0 156 51.5t53 183.5v350q0 113 56 197.5t168 103.5l65 -147q-53 -14 -78.5 -54t-25.5 -93v-875q0 -131 -57.5 -206t-196.5 -99l-68 147q60 10 98.5 50t38.5 114v156q-65 -62 -209 -62q-181 0 -277.5 97.5t-96.5 287.5z M436 1102l99 227q17 41 54 54t66 1q37 -16 46 -53.5t-21 -79.5l-115 -149h-129z" />
<glyph unicode="&#xfe;" horiz-adv-x="954" d="M127 0v1204h184v-223q37 28 91.5 44.5t107.5 16.5q190 0 289.5 -110.5t99.5 -286.5q0 -193 -105 -300t-276 -107q-53 0 -111 19.5t-96 59.5v-317h-184zM311 655q0 -124 59.5 -182.5t147.5 -58.5q81 0 139 56.5t58 178.5q0 95 -53.5 156t-143.5 61q-80 0 -143 -55.5 t-64 -155.5z" />
<glyph unicode="&#xff;" horiz-adv-x="1042" d="M113 360v666h184v-633q0 -129 47 -182t143 -53q103 0 156 51.5t53 183.5v350q0 113 56 197.5t168 103.5l65 -147q-53 -14 -78.5 -54t-25.5 -93v-875q0 -131 -57.5 -206t-196.5 -99l-68 147q60 10 98.5 50t38.5 114v156q-65 -62 -209 -62q-181 0 -277.5 97.5t-96.5 287.5z M281 1186q0 35 23.5 59.5t57.5 24.5q35 0 59.5 -24.5t24.5 -59.5q0 -34 -24.5 -58t-59.5 -24q-34 0 -57.5 24t-23.5 58zM567 1188q0 34 25 59t59 25q35 0 59.5 -25t24.5 -59q0 -35 -24.5 -59.5t-59.5 -24.5q-34 0 -59 24.5t-25 59.5z" />
<glyph unicode="&#x152;" horiz-adv-x="1581" d="M127 379v659q0 211 116 319.5t318 108.5q138 0 240 -57v25h684v-185h-498v-194v-19v-190h320l-56 -180h-264v-287v-23v-188h494v-168h-680v33q-106 -56 -242 -56q-64 0 -123 12.5t-116.5 42.5t-99.5 75t-67.5 115t-25.5 157zM313 406q0 -114 64.5 -178t179.5 -64 q107 0 173.5 61t70.5 170v625q-5 124 -62 187t-182 63q-131 0 -187.5 -68.5t-56.5 -204.5v-591z" />
<glyph unicode="&#x153;" horiz-adv-x="1533" d="M90 377v270q0 194 99.5 298t285.5 104q198 0 297 -136q68 73 141.5 102t184.5 29q158 0 254 -101.5t96 -264.5v-281l-592 -39v-51q0 -88 78.5 -129.5t194.5 -30t229 67.5l69 -143q-153 -94 -337 -97q-237 -7 -338 121q-40 -50 -111.5 -83t-165.5 -33q-97 0 -172.5 32.5 t-121 88t-68.5 125.5t-23 151zM276 356q0 -58 18 -101t48 -66t63.5 -33.5t69.5 -10.5t68 10.5t62 33.5t47.5 66t17.5 101v291q0 227 -195 227q-39 0 -71.5 -10t-62.5 -33.5t-47.5 -70t-17.5 -113.5v-291zM856 537l406 20v115q0 55 -16.5 96.5t-44.5 64t-59 33.5t-65 11 q-105 0 -163 -58t-58 -170v-112z" />
<glyph unicode="&#x178;" horiz-adv-x="1155" d="M90 874v560h186v-553q0 -132 74.5 -197.5t208.5 -65.5q105 0 169 36t85 89v691h186v-1115q0 -158 -64.5 -245.5t-209.5 -104.5l-55 140q62 11 102.5 58.5t40.5 160.5v176q-101 -70 -254 -70q-213 0 -341 117t-128 323zM317 1579q0 35 24 59.5t58 24.5q35 0 59.5 -24.5 t24.5 -59.5q0 -34 -24.5 -58t-59.5 -24q-34 0 -58 24t-24 58zM604 1581q0 34 25 59t59 25q35 0 59.5 -25t24.5 -59q0 -35 -24.5 -59.5t-59.5 -24.5q-34 0 -59 24.5t-25 59.5z" />
<glyph unicode="&#x2c6;" horiz-adv-x="1036" d="M221 1288l303 289l291 -289l-117 -80l-176 185l-186 -185z" />
<glyph unicode="&#x2dc;" horiz-adv-x="1038" d="M166 1331q52 59 104.5 85t97 22.5t89 -19t87 -33.5t83 -27t85.5 6.5t87 61.5l73 -114q-51 -60 -101.5 -86t-94.5 -21.5t-87.5 21t-86 35t-84.5 27.5t-89 -7.5t-93 -64.5z" />
<glyph unicode="&#x2000;" horiz-adv-x="934" />
<glyph unicode="&#x2001;" horiz-adv-x="1868" />
<glyph unicode="&#x2002;" horiz-adv-x="934" />
<glyph unicode="&#x2003;" horiz-adv-x="1868" />
<glyph unicode="&#x2004;" horiz-adv-x="622" />
<glyph unicode="&#x2005;" horiz-adv-x="467" />
<glyph unicode="&#x2006;" horiz-adv-x="311" />
<glyph unicode="&#x2007;" horiz-adv-x="311" />
<glyph unicode="&#x2008;" horiz-adv-x="233" />
<glyph unicode="&#x2009;" horiz-adv-x="373" />
<glyph unicode="&#x200a;" horiz-adv-x="103" />
<glyph unicode="&#x2010;" d="M158 666v180h655v-180h-655z" />
<glyph unicode="&#x2011;" d="M158 666v180h655v-180h-655z" />
<glyph unicode="&#x2012;" d="M158 666v180h655v-180h-655z" />
<glyph unicode="&#x2013;" horiz-adv-x="1339" d="M158 666v180h1024v-180h-1024z" />
<glyph unicode="&#x2014;" horiz-adv-x="2363" d="M158 666v180h2048v-180h-2048z" />
<glyph unicode="&#x2018;" horiz-adv-x="401" d="M90 1217q-1 67 32 124t103 119l121 -59q-44 -24 -79 -51t-49 -42l-13 -14l22 -6q31 -18 42.5 -44t11.5 -46q-2 -40 -30.5 -66.5t-70.5 -25.5q-43 3 -66.5 38.5t-23.5 72.5z" />
<glyph unicode="&#x2019;" horiz-adv-x="409" d="M70 1159q44 24 79 51t49 42l13 14l-23 6q-31 18 -42 44t-11 46q2 40 30.5 66.5t70.5 25.5q43 -3 66.5 -38.5t23.5 -72.5q1 -67 -32.5 -124t-103.5 -119z" />
<glyph unicode="&#x201a;" horiz-adv-x="432" d="M55 -113q44 24 79.5 51t49.5 42l13 14l-23 6q-31 18 -42 44t-11 46q2 40 30 66.5t70 25.5q43 -3 66.5 -38t23.5 -72q1 -68 -32 -125t-103 -119z" />
<glyph unicode="&#x201c;" horiz-adv-x="663" d="M90 1217q-1 67 32 124t103 119l121 -59q-44 -24 -79 -51t-49 -42l-13 -14l22 -6q31 -18 42.5 -44t11.5 -46q-2 -40 -30.5 -66.5t-70.5 -25.5q-43 3 -66.5 38.5t-23.5 72.5zM354 1217q-1 67 32 124t103 119l121 -59q-44 -24 -79 -51t-49 -42l-13 -14l23 -6q31 -18 42 -44 t11 -46q-2 -40 -30.5 -66.5t-70.5 -25.5q-43 3 -66.5 38.5t-23.5 72.5z" />
<glyph unicode="&#x201d;" horiz-adv-x="677" d="M76 1163q44 24 79 51t49 42l13 14l-22 6q-31 18 -42.5 44t-11.5 46q2 40 30.5 66.5t70.5 25.5q43 -3 66.5 -38t23.5 -72q1 -68 -32 -125t-103 -119zM340 1163q44 24 79 51t49 42l13 14l-22 6q-31 18 -42 44t-11 46q2 40 30 66.5t70 25.5q43 -3 66.5 -38t23.5 -72 q1 -68 -32 -125t-103 -119z" />
<glyph unicode="&#x201e;" horiz-adv-x="524" d="M57 -111q44 24 79.5 51t49.5 42l13 14l-23 6q-31 18 -42 44t-11 46q2 40 30 66.5t70 25.5q22 -3 37 -12q21 12 53 12q43 -3 66.5 -38t23.5 -72q1 -68 -32 -125t-103 -119l-59 29q-10 -8 -31 -29z" />
<glyph unicode="&#x2022;" horiz-adv-x="972" d="M121 690q0 152 106 258.5t258 106.5t259.5 -106.5t107.5 -258.5t-107.5 -259t-259.5 -107t-258 107t-106 259z" />
<glyph unicode="&#x2026;" horiz-adv-x="1161" d="M121 90q0 38 27.5 65t64.5 27t63.5 -27t26.5 -65q0 -37 -26.5 -63.5t-63.5 -26.5t-64.5 26.5t-27.5 63.5zM489 90q0 38 28 65t65 27t63.5 -27t26.5 -65q0 -37 -26.5 -63.5t-63.5 -26.5t-65 27t-28 63zM858 90q0 38 27.5 65t64.5 27t63.5 -27t26.5 -65q0 -37 -26.5 -63.5 t-63.5 -26.5t-64.5 26.5t-27.5 63.5z" />
<glyph unicode="&#x202f;" horiz-adv-x="373" />
<glyph unicode="&#x2039;" horiz-adv-x="706" d="M82 547v2l383 383l123 -123l-266 -262l264 -268l-121 -115z" />
<glyph unicode="&#x203a;" horiz-adv-x="706" d="M119 809l123 123l383 -383v-2l-383 -383l-121 115l264 268z" />
<glyph unicode="&#x205f;" horiz-adv-x="467" />
<glyph unicode="&#x20ac;" horiz-adv-x="999" d="M82 444v181h121v98h-121v180h121v121q0 82 12 142.5t37 103t55 70.5t74 55q102 57 245 51.5t265 -68.5l-53 -159q-96 36 -211 36q-98 0 -168 -52t-70 -161v-139h348v-180h-348v-98h348v-181h-348v-73q0 -74 30.5 -122t80 -68t119.5 -21t140.5 12.5t151.5 38.5l31 -172 q-84 -32 -167.5 -49t-167.5 -19.5t-156 20t-128 66.5t-88 123.5t-32 186.5v77h-121z" />
<glyph unicode="&#x2122;" horiz-adv-x="948" d="M68 1339v95h473l80 -222l77 222h131v-385h-94v245l-82 -245h-63l-82 245v-245h-98v290h-115v-290h-98v290h-129z" />
<glyph unicode="&#xe000;" horiz-adv-x="1024" d="M0 0v1024h1024v-1024h-1024z" />
</font>
</defs>
</svg>
